<?xml version="1.0" standalone="no"?>
<!DOCTYPE svg PUBLIC "-//W3C//DTD SVG 20010904//EN"
 "http://www.w3.org/TR/2001/REC-SVG-20010904/DTD/svg10.dtd">
<svg version="1.0" xmlns="http://www.w3.org/2000/svg"
 width="380.000000pt" height="285.000000pt" viewBox="0 0 380.000000 285.000000"
 preserveAspectRatio="xMidYMid meet">

<g transform="translate(0.000000,285.000000) scale(0.100000,-0.100000)"
fill="#ffffff" stroke="none">
<path d="M1721 2460 c-40 -44 -104 -117 -143 -162 -69 -81 -208 -238 -218
-248 -22 -21 -346 -384 -348 -391 -2 -5 330 -9 782 -9 432 0 786 2 786 5 0 2
-105 123 -232 268 -369 419 -491 558 -516 588 -13 16 -27 29 -31 29 -4 0 -40
-36 -80 -80z"/>
<path d="M1000 1128 l-1 -493 -102 -34 c-177 -58 -397 -181 -447 -251 -51 -72
-2 -170 85 -170 26 0 80 23 87 37 1 5 26 26 53 49 233 188 595 298 1145 345
158 13 606 17 800 5 183 -10 581 -44 655 -56 64 -11 111 -13 104 -5 -7 6 -508
90 -653 109 -66 9 -121 17 -122 19 -2 2 -4 213 -4 470 l-1 468 -117 -3 -117
-3 -2 -450 c-2 -247 -3 -453 -3 -457 0 -3 -9 -4 -20 -1 -20 5 -20 14 -20 459
l0 454 -70 0 -70 0 0 -450 0 -450 -25 0 -25 0 0 450 0 450 -360 0 -360 0 0
-455 c0 -448 0 -455 -20 -455 -20 0 -20 7 -20 455 l0 455 -75 0 -75 0 0 -470
c0 -463 0 -470 -20 -470 -20 0 -20 7 -20 470 l0 470 -90 0 -90 0 0 -492z m920
-193 l0 -195 -35 0 -35 0 0 179 0 179 -72 12 c-40 6 -80 13 -88 15 -8 1 40 3
108 4 l122 1 0 -195z m-95 -75 c3 -5 1 -10 -4 -10 -6 0 -11 5 -11 10 0 6 2 10
4 10 3 0 8 -4 11 -10z"/>
</g>
</svg>
